# xmcd
#
# Track frame offsets: 
#        150
#        15114
#        30559
#        47773
#        67932
#        86190
#        101190
#        121177
#        137166
#        155311
#        172126
#
# Disc length: 2498 seconds
#
# Revision: 0
# Processed by: cddbd v1.5.2PL0 Copyright (c) Steve Scherf et al.
# Submitted via: ExactAudioCopyFreeDBPlugin 1.0
#
DISCID=8809c00b
DTITLE=Rita Hosking - Burn
DYEAR=2011
DGENRE=Americana
TTITLE0=Something You Got
TTITLE1=When Miners Sang
TTITLE2=Crash and Burn
TTITLE3=Indian Giver
TTITLE4=How Many Fires
TTITLE5=Dishes
TTITLE6=My Demolition Man
TTITLE7=Ballad For The Gulf of Mexico
TTITLE8=The Coyote
TTITLE9=My Golden Bull
TTITLE10=Song for Claire
EXTD=
EXTT0=
EXTT1=
EXTT2=
EXTT3=
EXTT4=
EXTT5=
EXTT6=
EXTT7=
EXTT8=
EXTT9=
EXTT10=
PLAYORDER=
